<svg xmlns="http://www.w3.org/2000/svg" xmlns:xlink="http://www.w3.org/1999/xlink" viewBox="0 0 1172.3 200"><defs><style>.cls-1{fill:url(#linear-gradient);}.cls-2{fill:#fff;}.cls-3{fill:#4267b2;}</style><linearGradient id="linear-gradient" x1="103.18" y1="100" x2="248.06" y2="100" gradientUnits="userSpaceOnUse"><stop offset="0" stop-color="#4267b2"/><stop offset="0.29" stop-color="#4166af"/><stop offset="0.47" stop-color="#3e61a7"/><stop offset="0.61" stop-color="#395999"/><stop offset="0.74" stop-color="#314d84"/><stop offset="0.85" stop-color="#283e6a"/><stop offset="0.96" stop-color="#1c2c4a"/><stop offset="1" stop-color="#17243d"/></linearGradient></defs><g id="Layer_2" data-name="Layer 2"><g id="Layer_1-2" data-name="Layer 1"><g id="logo"><rect class="cls-1" width="200" height="200" rx="40"/><g id="logo_text" data-name="logo text"><path class="cls-2" d="M69,79A17.47,17.47,0,0,1,74.26,66.4,17.2,17.2,0,0,1,87,61v43.06A40.81,40.81,0,0,1,74.15,134.4,42.4,42.4,0,0,1,43.5,146.92H18.23a16.65,16.65,0,0,1,4.95-12.08,16.37,16.37,0,0,1,12.19-5.06H43.5a24.44,24.44,0,0,0,18.12-7.46A25,25,0,0,0,69,104.08Z"/><path class="cls-2" d="M182.34,104.08v42.84h-43.5A42.36,42.36,0,0,1,108.2,134.4a40.78,40.78,0,0,1-12.86-30.32A41.15,41.15,0,0,1,108.2,73.65a43.49,43.49,0,0,1,61.29,0A41.14,41.14,0,0,1,182.34,104.08Zm-18.23,25.7v-25.7a25.49,25.49,0,0,0-7.36-18.23,24.82,24.82,0,0,0-35.92,0,25.68,25.68,0,0,0-7.25,18.23,25.22,25.22,0,0,0,7.25,18.24,24.07,24.07,0,0,0,18,7.46Z"/><circle class="cls-2" cx="138.85" cy="103.73" r="13.73"/></g></g><g id="JaReserve"><path class="cls-3" d="M262.64,156.19a43.65,43.65,0,0,1-17.51-13l18.36-21.76q9.52,12.4,20.57,12.41,7.31,0,11.14-4.42T299,116.49V65.32H257.88v-26h74.46v75.14q0,23.12-11.64,34.68t-34.26,11.56A60.85,60.85,0,0,1,262.64,156.19Z"/><path class="cls-3" d="M427.88,75.1Q440,85.54,440,107.14v51.17H409.86v-11.9q-7,13.43-27.2,13.43a42.6,42.6,0,0,1-18.53-3.74A27.53,27.53,0,0,1,352.31,146a26.8,26.8,0,0,1-4-14.53q0-13.09,10-20.31t30.94-7.23h18.36q-.86-14.62-19.55-14.62a44.74,44.74,0,0,0-13.43,2.13,35.71,35.71,0,0,0-11.56,5.86L352.23,75.35a60.34,60.34,0,0,1,18.61-7.91,89,89,0,0,1,22-2.8Q415.81,64.64,427.88,75.1Zm-26.35,61.62a15.17,15.17,0,0,0,6.12-8v-8H393.71q-14.11,0-14.11,9.35a8.24,8.24,0,0,0,3.23,6.8q3.23,2.55,8.84,2.55A17.91,17.91,0,0,0,401.53,136.72Z"/><path class="cls-3" d="M513.9,126.69H495.54v31.62H461.88v-119h54.4q16.14,0,28.05,5.36A41.57,41.57,0,0,1,562.69,60q6.45,9.94,6.46,23.37,0,12.91-6,22.53a40.82,40.82,0,0,1-17.25,15l25.67,37.4h-36Zm16-56.27q-5.28-4.59-15.64-4.59h-18.7v34.85h18.7q10.37,0,15.64-4.5t5.27-12.84Q535.15,75,529.88,70.42Z"/><path class="cls-3" d="M679.82,120.4h-67a18.73,18.73,0,0,0,7.9,11q5.87,3.84,14.71,3.83a31.73,31.73,0,0,0,11.47-1.87,34.07,34.07,0,0,0,9.78-6.12l17,17.68q-13.44,15-39.27,15-16.15,0-28.39-6.12a45,45,0,0,1-25.67-41.65A45.47,45.47,0,0,1,605,70.76a58,58,0,0,1,51-.42,43.23,43.23,0,0,1,17.76,16.49q6.54,10.78,6.55,25.58Q680.33,112.76,679.82,120.4ZM618.7,91.84a19.17,19.17,0,0,0-6.37,11.56h37.74a19.23,19.23,0,0,0-6.38-11.56,20.49,20.49,0,0,0-25,0Z"/><path class="cls-3" d="M706,157.2q-11.22-2.62-18-6.88l9.69-22.1a54.59,54.59,0,0,0,15,6.21,67.3,67.3,0,0,0,17.17,2.29q7.82,0,11.13-1.62t3.32-4.67c0-2-1.34-3.49-4-4.33a80.77,80.77,0,0,0-12.66-2.47,126,126,0,0,1-18.79-3.57,28.9,28.9,0,0,1-13.34-8.16q-5.61-6-5.61-16.66a25.11,25.11,0,0,1,5.27-15.72q5.26-6.88,15.38-10.88t24.23-4a98,98,0,0,1,19.89,2,57.3,57.3,0,0,1,16.49,5.78l-9.69,21.93a53.75,53.75,0,0,0-26.52-6.8q-7.65,0-11.22,1.79t-3.57,4.67c0,2.15,1.3,3.66,3.91,4.51a90,90,0,0,0,12.92,2.63,142.69,142.69,0,0,1,18.87,3.91,28.83,28.83,0,0,1,13,8.08q5.52,5.86,5.53,16.4a25,25,0,0,1-5.27,15.56q-5.28,6.88-15.56,10.79t-24.73,3.91A99.11,99.11,0,0,1,706,157.2Z"/><path class="cls-3" d="M882,120.4H815a18.73,18.73,0,0,0,7.9,11q5.86,3.84,14.71,3.83a31.73,31.73,0,0,0,11.47-1.87,34.07,34.07,0,0,0,9.78-6.12l17,17.68q-13.44,15-39.27,15-16.15,0-28.39-6.12a45,45,0,0,1-25.67-41.65,45.47,45.47,0,0,1,24.65-41.31,58,58,0,0,1,51-.42,43.23,43.23,0,0,1,17.76,16.49q6.54,10.78,6.55,25.58Q882.46,112.76,882,120.4ZM820.83,91.84a19.17,19.17,0,0,0-6.37,11.56H852.2a19.23,19.23,0,0,0-6.38-11.56,20.49,20.49,0,0,0-25,0Z"/><path class="cls-3" d="M941,67.79a48.65,48.65,0,0,1,18.11-3.15V93.71a66.19,66.19,0,0,0-7.31-.51q-10.38,0-16.24,5.61T929.72,116v42.33h-32.3V66.17h30.77v11A30,30,0,0,1,941,67.79Z"/><path class="cls-3" d="M1072.34,66.17l-38.08,92.14h-33.32L963,66.17h33.15l22.1,56.27,23.29-56.27Z"/><path class="cls-3" d="M1171.79,120.4h-67a18.74,18.74,0,0,0,7.91,11q5.87,3.84,14.7,3.83a31.79,31.79,0,0,0,11.48-1.87,33.89,33.89,0,0,0,9.77-6.12l17,17.68q-13.43,15-39.27,15-16.14,0-28.39-6.12a45.09,45.09,0,0,1-25.67-41.65A45.52,45.52,0,0,1,1097,70.76a58,58,0,0,1,51-.42,43.31,43.31,0,0,1,17.77,16.49q6.54,10.78,6.54,25.58Q1172.3,112.76,1171.79,120.4Zm-61.11-28.56a19.23,19.23,0,0,0-6.38,11.56H1142a19.17,19.17,0,0,0-6.37-11.56,20.49,20.49,0,0,0-25,0Z"/></g></g></g></svg>